<?xml version="1.0"?>
<svg xmlns="http://www.w3.org/2000/svg" xmlns:xlink="http://www.w3.org/1999/xlink" version="1.1" id="Capa_1" x="0px" y="0px" viewBox="0 0 480.008 480.008" style="enable-background:new 0 0 480.008 480.008;" xml:space="preserve" width="512px" height="512px" class=""><g><g>
	<g>
		<path d="M479.668,453.576c0,0,0-0.001,0-0.001l-23.664-78.88v-30.824c-0.024-41.366,7.418-82.397,21.968-121.12l1.528-4.072    c1.546-4.14-0.556-8.75-4.696-10.296c-4.14-1.546-8.75,0.556-10.296,4.696l-1.52,4.072    c-14.246,38.003-21.958,78.143-22.808,118.72h-88.176c-4.418,0-8,3.582-8,8v112c0,4.418,3.582,8,8,8s8-3.582,8-8v-72h82.048    l22.288,74.296c1.014,3.385,4.13,5.704,7.664,5.704c0.777-0.002,1.551-0.116,2.296-0.336    C478.533,462.267,480.936,457.808,479.668,453.576z M440.004,367.871h-80v-16h80V367.871z" data-original="#000000" class="active-path" data-old_color="#78d0d0" fill="#78d0d0"/>
	</g>
</g><g>
	<g>
		<path d="M128.004,335.871H39.828c-0.848-40.582-8.56-80.728-22.808-118.736l-1.52-4.072c-1.546-4.14-6.156-6.242-10.296-4.696    c-4.14,1.546-6.242,6.156-4.696,10.296l1.528,4.072c14.552,38.728,21.994,79.764,21.968,121.136v30.824L0.34,453.575    c-1.268,4.232,1.135,8.691,5.367,9.96c0,0,0.001,0,0.001,0c0.745,0.224,1.518,0.338,2.296,0.336c3.534,0,6.65-2.319,7.664-5.704    l22.288-74.296h82.048v72c0,4.418,3.582,8,8,8c4.418,0,8-3.582,8-8v-112C136.004,339.452,132.422,335.871,128.004,335.871z     M120.004,367.871h-80v-16h80V367.871z" data-original="#000000" class="active-path" data-old_color="#78d0d0" fill="#78d0d0"/>
	</g>
</g><g>
	<g>
		<path d="M368.004,239.871h-120v-48c17.673,13.255,42.745,9.673,56-8c5.193-6.924,8-15.345,8-24v-24c0-4.418-3.582-8-8-8    s-8,3.582-8,8v24c0,13.255-10.745,24-24,24s-24-10.745-24-24v-32c0-4.418-3.582-8-8-8s-8,3.582-8,8v32c0,13.255-10.745,24-24,24    s-24-10.745-24-24v-24c0-4.418-3.582-8-8-8s-8,3.582-8,8v24c0.053,22.118,18.026,40.005,40.144,39.952    c8.6-0.021,16.964-2.809,23.856-7.952v48h-120c-4.418,0-8,3.582-8,8v32c0,4.418,3.582,8,8,8h72    c0.593-0.048,1.179-0.166,1.744-0.352l46.256,33.04v103.312c-0.001,3.445,2.204,6.503,5.472,7.592    c8.837,2.956,16.466,8.718,21.728,16.408h-51.2c-4.418,0-8,3.582-8,8s3.582,8,8,8h64c4.418,0.001,8.001-3.58,8.002-7.998    c0-0.86-0.138-1.714-0.41-2.53c-5.222-15.526-16.667-28.179-31.592-34.928v-91.28c1.671,0.254,3.358,0.385,5.048,0.392    c9.387-0.003,18.387-3.746,25.008-10.4l29.256-29.256h60.688c4.418,0,8-3.582,8-8v-32    C376.004,243.452,372.422,239.871,368.004,239.871z M120.004,271.871v-16h21.432l22.4,16H120.004z M298.348,274.215l-31.6,31.6    c-6.69,6.719-17.266,7.593-24.968,2.064l-72.8-52l147.712-0.008L298.348,274.215z M360.004,271.871h-36.688l16-16h20.688V271.871z    " data-original="#000000" class="active-path" data-old_color="#78d0d0" fill="#78d0d0"/>
	</g>
</g><g>
	<g>
		<path d="M326.132,65.583L310.86,40.159c-2.595-3.786-7.769-4.752-11.555-2.157c-0.846,0.58-1.577,1.311-2.157,2.157    l-15.272,25.448c-7.317,12.237-3.328,28.089,8.909,35.406c3.996,2.389,8.563,3.653,13.219,3.658    c14.258-0.008,25.809-11.573,25.801-25.831C329.802,74.17,328.533,69.588,326.132,65.583z M309.075,87.302    c-4.639,2.796-10.667,1.302-13.463-3.337c-1.877-3.115-1.877-7.012,0-10.127l-0.016-0.024l8.408-13.984l8.408,14.008    C315.208,78.478,313.715,84.505,309.075,87.302z" data-original="#000000" class="active-path" data-old_color="#78d0d0" fill="#78d0d0"/>
	</g>
</g><g>
	<g>
		<path d="M263.932,45.199l-15.264-25.448c-2.6-3.789-7.779-4.752-11.568-2.152c-0.844,0.579-1.573,1.309-2.152,2.152    l-15.264,25.448c-7.104,11.808-3.661,27.116,7.816,34.744c11.856,7.903,27.875,4.699,35.778-7.158    C268.808,64.488,269.063,53.748,263.932,45.199z M246.86,66.918c-4.639,2.788-10.66,1.287-13.448-3.352    c-1.867-3.106-1.867-6.989,0-10.096h-0.008l8.408-14.008l8.4,14.008C253,58.11,251.499,64.131,246.86,66.918z" data-original="#000000" class="active-path" data-old_color="#78d0d0" fill="#78d0d0"/>
	</g>
</g><g>
	<g>
		<path d="M199.932,69.199l-15.264-25.448c-2.6-3.789-7.779-4.752-11.568-2.152c-0.844,0.579-1.573,1.309-2.152,2.152    l-15.264,25.448c-7.33,12.229-3.358,28.085,8.871,35.415c4.005,2.401,8.587,3.67,13.257,3.673    c14.258-0.013,25.806-11.581,25.793-25.839C203.601,77.78,202.331,73.202,199.932,69.199z M182.86,90.918    c-4.639,2.788-10.66,1.287-13.448-3.352c-1.867-3.106-1.867-6.989,0-10.096h-0.008l8.408-14.008l8.4,14.008    C189,82.11,187.499,88.131,182.86,90.918z" data-original="#000000" class="active-path" data-old_color="#78d0d0" fill="#78d0d0"/>
	</g>
</g></g> </svg>
